<?xml version="1.0" standalone="no"?>
<!DOCTYPE svg PUBLIC "-//W3C//DTD SVG 20010904//EN"
 "http://www.w3.org/TR/2001/REC-SVG-20010904/DTD/svg10.dtd">
<svg version="1.0" xmlns="http://www.w3.org/2000/svg"
 width="480.000000pt" height="480.000000pt" viewBox="0 0 480.000000 480.000000"
 preserveAspectRatio="xMidYMid meet">
<metadata>
Created by potrace 1.14, written by Peter Selinger 2001-2017
</metadata>
<g transform="translate(0.000000,480.000000) scale(0.100000,-0.100000)"
fill="#000000" stroke="none">
<path d="M766 4095 c-195 -115 -353 -211 -351 -213 3 -4 3967 -4 3971 0 1 2
-156 99 -351 216 l-353 212 -102 0 c-78 0 -99 -3 -94 -12 6 -10 5 -10 -8 -1
-12 10 -263 12 -1186 10 l-1172 -2 -354 -210z"/>
<path d="M3400 3591 c0 -241 2 -282 16 -295 12 -13 41 -16 154 -16 132 0 140
1 154 22 14 19 16 65 16 295 l0 273 -170 0 -170 0 0 -279z"/>
<path d="M410 3635 c0 -252 4 -274 62 -319 79 -60 191 -35 236 54 21 42 22 56
22 267 l0 223 -160 0 -160 0 0 -225z"/>
<path d="M740 3630 c0 -210 2 -234 20 -269 58 -114 232 -114 290 0 18 35 20
59 20 269 l0 230 -165 0 -165 0 0 -230z"/>
<path d="M1082 3621 c3 -224 4 -241 24 -267 31 -43 67 -65 112 -71 57 -8 121
25 150 76 21 37 22 51 22 270 l0 231 -156 0 -155 0 3 -239z"/>
<path d="M1400 3638 c0 -195 3 -228 19 -264 57 -126 232 -135 299 -16 21 38
22 51 22 271 l0 231 -170 0 -170 0 0 -222z"/>
<path d="M1752 3628 c3 -202 5 -237 21 -266 53 -97 200 -105 262 -14 25 36 25
38 25 274 l0 238 -156 0 -155 0 3 -232z"/>
<path d="M2070 3629 c0 -260 5 -282 69 -324 48 -31 91 -39 139 -26 53 15 91
46 112 94 l18 39 18 -38 c27 -53 65 -78 132 -85 l57 -6 -50 -1 c-27 -1 -63 5
-80 12 -28 12 -32 11 -51 -12 -17 -21 -23 -23 -42 -13 -15 8 -34 8 -73 0 -33
-7 -80 -9 -124 -4 -84 9 -155 9 -251 -1 -46 -4 -90 -2 -123 6 -41 10 -55 10
-66 0 -17 -14 -19 -57 -5 -94 9 -26 9 -26 -40 -26 -67 0 -96 13 -155 69 -29
27 -65 52 -83 56 -75 16 -163 -22 -188 -80 -42 -103 98 -181 252 -141 84 22
107 20 135 -10 37 -39 54 -46 151 -54 100 -8 125 -21 82 -41 -38 -19 -74 -75
-74 -115 0 -22 9 -44 29 -66 l29 -33 -32 -61 c-17 -34 -36 -59 -42 -57 -14 5
-86 -69 -141 -145 -25 -34 -59 -97 -77 -141 -18 -43 -55 -108 -81 -145 -56
-80 -85 -150 -85 -211 0 -38 3 -45 19 -45 32 0 33 -16 8 -67 -41 -81 -111
-265 -211 -559 -52 -154 -109 -311 -125 -347 -18 -40 -26 -69 -20 -73 6 -3 -3
-28 -21 -60 -16 -29 -30 -65 -30 -79 l0 -25 -308 0 c-226 0 -311 -3 -320 -12
-16 -16 -16 -220 0 -236 17 -17 3959 -17 3976 0 16 16 16 220 0 236 -9 9 -361
12 -1524 12 -1503 0 -1512 0 -1517 20 -3 12 -14 20 -26 20 -11 0 -54 15 -96
33 -70 31 -74 35 -61 53 8 10 25 19 37 19 19 0 45 33 136 169 139 207 262 407
338 549 l57 107 36 -28 c57 -45 117 -81 244 -147 l117 -61 -30 -69 c-52 -121
-101 -269 -101 -304 0 -24 -8 -42 -28 -60 -37 -34 -46 -66 -23 -76 52 -20 261
-95 267 -95 15 0 4 38 -13 46 -22 10 -141 122 -141 132 0 4 15 19 33 33 44 35
152 189 193 274 49 101 58 159 34 210 -20 42 -194 220 -331 340 -55 48 -75 72
-72 84 4 17 15 18 111 14 104 -5 248 9 265 26 5 5 9 29 9 55 0 43 1 46 26 46
68 0 138 42 154 91 6 19 64 -17 76 -48 6 -15 40 -122 76 -238 36 -115 85 -274
110 -353 44 -138 45 -144 30 -183 -29 -83 -7 -162 59 -210 l40 -29 387 0 c391
0 410 2 410 36 0 7 -7 20 -16 28 -13 14 -62 16 -384 16 -203 0 -376 3 -385 6
-20 8 -45 55 -45 86 0 12 7 41 16 63 l15 41 367 38 c202 21 382 42 400 48 36
11 87 50 102 78 10 19 100 402 100 425 0 10 -128 14 -582 21 l-582 9 -26 80
c-14 44 -34 92 -44 107 -25 38 -92 68 -154 68 -28 0 -54 5 -57 10 -3 6 -44 10
-90 10 -46 0 -86 4 -89 9 -3 5 -36 18 -73 30 -38 11 -99 38 -137 59 l-69 37
-2 90 c-1 50 0 100 2 113 l5 22 36 -22 35 -21 23 26 c29 34 54 116 54 179 0
59 -26 89 -95 109 -42 13 -45 16 -45 49 0 19 -3 44 -5 55 -4 16 3 24 35 38 22
10 48 32 57 48 10 16 20 29 23 29 3 0 13 -13 23 -29 9 -16 37 -39 60 -50 79
-38 160 -22 213 43 l30 36 22 -30 c46 -62 143 -87 215 -56 38 16 82 61 92 94
6 21 8 20 28 -20 59 -115 245 -115 303 0 l22 42 10 -27 c13 -39 57 -80 99 -94
76 -25 180 18 204 84 l12 34 21 -41 c25 -48 90 -86 147 -86 84 0 159 72 159
153 0 47 -12 52 -98 39 -45 -6 -88 -6 -131 1 -45 7 -69 7 -81 -1 -13 -8 -21
-7 -29 1 -8 8 -29 8 -78 0 -46 -7 -90 -7 -137 0 -48 7 -75 6 -86 -1 -10 -6
-21 -7 -26 -2 -5 5 -22 10 -37 12 l-28 3 35 42 c45 51 46 63 4 27 -90 -75
-200 -72 -256 7 -14 20 -12 20 23 -6 34 -26 47 -30 104 -30 79 0 123 26 151
87 l17 38 12 -42 c42 -140 222 -153 290 -21 7 14 11 103 11 257 l0 236 -326 0
-325 0 3 -229 c2 -126 0 -227 -4 -224 -5 2 -8 105 -8 229 l0 224 -330 0 -330
0 0 -231z m627 -279 c-8 -12 -26 -29 -39 -38 -16 -11 -13 -4 12 24 37 43 53
51 27 14z m-637 -1096 c40 -10 84 -14 115 -10 52 6 150 -21 143 -39 -5 -12
-260 -6 -315 8 -42 11 -48 16 -51 41 -3 26 -1 28 20 22 13 -3 52 -14 88 -22z"/>
<path d="M3750 3585 c0 -339 -12 -315 156 -315 63 0 124 5 135 10 18 10 19 24
19 295 l0 285 -155 0 -155 0 0 -275z"/>
<path d="M4072 3628 c3 -198 6 -238 20 -265 67 -122 241 -116 299 11 16 36 19
69 19 264 l0 222 -171 0 -171 0 4 -232z"/>
<path d="M2743 967 c-31 -29 -37 -41 -40 -88 -5 -66 17 -107 70 -132 46 -22
75 -21 114 3 45 27 66 64 66 114 0 80 -55 136 -132 136 -33 0 -49 -7 -78 -33z"/>
<path d="M3443 979 c-19 -12 -38 -37 -48 -63 -27 -70 1 -138 72 -175 73 -37
173 34 173 123 0 108 -109 172 -197 115z"/>
</g>
</svg>
